<?xml version="1.0" encoding="UTF-8" standalone="no"?>
<!-- Created with Inkscape (http://www.inkscape.org/) -->

<svg
   xmlns:dc="http://purl.org/dc/elements/1.1/"
   xmlns:cc="http://creativecommons.org/ns#"
   xmlns:rdf="http://www.w3.org/1999/02/22-rdf-syntax-ns#"
   xmlns:svg="http://www.w3.org/2000/svg"
   xmlns="http://www.w3.org/2000/svg"
   xmlns:sodipodi="http://sodipodi.sourceforge.net/DTD/sodipodi-0.dtd"
   xmlns:inkscape="http://www.inkscape.org/namespaces/inkscape"
   width="512"
   height="512"
   viewBox="0 0 135.46666 135.46667"
   version="1.1"
   id="svg8"
   inkscape:version="0.92.2 2405546, 2018-03-11"
   sodipodi:docname="ascii-new.svg"
   inkscape:export-filename="/home/petervaro/documents/personal/remote/petervaro/avatar/ascii-new.png"
   inkscape:export-xdpi="72"
   inkscape:export-ydpi="72">
  <defs
     id="defs2" />
  <sodipodi:namedview
     id="base"
     pagecolor="#ffffff"
     bordercolor="#666666"
     borderopacity="1.0"
     inkscape:pageopacity="0.0"
     inkscape:pageshadow="2"
     inkscape:zoom="0.8"
     inkscape:cx="183.90134"
     inkscape:cy="225.45987"
     inkscape:document-units="px"
     inkscape:current-layer="layer2"
     showgrid="false"
     units="px"
     inkscape:showpageshadow="false"
     inkscape:window-width="2292"
     inkscape:window-height="1438"
     inkscape:window-x="0"
     inkscape:window-y="0"
     inkscape:window-maximized="0" />
  <metadata
     id="metadata5">
    <rdf:RDF>
      <cc:Work
         rdf:about="">
        <dc:format>image/svg+xml</dc:format>
        <dc:type
           rdf:resource="http://purl.org/dc/dcmitype/StillImage" />
        <dc:title></dc:title>
      </cc:Work>
    </rdf:RDF>
  </metadata>
  <g
     inkscape:label="bg"
     inkscape:groupmode="layer"
     id="layer1"
     transform="translate(0,-161.53332)"
     sodipodi:insensitive="true">
    <rect
       style="opacity:1;fill:#282c34;fill-opacity:1;fill-rule:evenodd;stroke:none;stroke-width:0.52916664;stroke-linecap:round;stroke-linejoin:miter;stroke-miterlimit:4;stroke-dasharray:none;stroke-opacity:1"
       id="rect4590"
       width="135.46666"
       height="135.46667"
       x="0"
       y="161.53333" />
  </g>
  <g
     inkscape:groupmode="layer"
     id="layer3"
     inkscape:label="tx"
     style="display:none"
     sodipodi:insensitive="true">
    <text
       xml:space="preserve"
       style="font-style:normal;font-weight:normal;font-size:10.58333302px;line-height:1.25;font-family:sans-serif;letter-spacing:0px;word-spacing:0px;fill:#000000;fill-opacity:1;stroke:none;stroke-width:0.26458332"
       x="19.977764"
       y="30.684361"
       id="text4487"><tspan
         sodipodi:role="line"
         id="tspan4485"
         x="19.977764"
         y="30.684361"
         style="font-style:normal;font-variant:normal;font-weight:normal;font-stretch:normal;font-size:18.34444427px;line-height:1.20000005;font-family:'Meslo LG L';-inkscape-font-specification:'Meslo LG L';fill:#ffffff;fill-opacity:1;stroke-width:0.26458332">  .'&quot;'.</tspan><tspan
         sodipodi:role="line"
         x="19.977764"
         y="52.697693"
         style="font-style:normal;font-variant:normal;font-weight:normal;font-stretch:normal;font-size:18.34444427px;line-height:1.20000005;font-family:'Meslo LG L';-inkscape-font-specification:'Meslo LG L';fill:#ffffff;fill-opacity:1;stroke-width:0.26458332"
         id="tspan4489"> : ~ _ :</tspan><tspan
         sodipodi:role="line"
         x="19.977764"
         y="74.711029"
         style="font-style:normal;font-variant:normal;font-weight:normal;font-stretch:normal;font-size:18.34444427px;line-height:1.20000005;font-family:'Meslo LG L';-inkscape-font-specification:'Meslo LG L';fill:#ffffff;fill-opacity:1;stroke-width:0.26458332"
         id="tspan4491">(#-O_O-#)</tspan><tspan
         sodipodi:role="line"
         x="19.977764"
         y="96.724365"
         style="font-style:normal;font-variant:normal;font-weight:normal;font-stretch:normal;font-size:18.34444427px;line-height:1.20000005;font-family:'Meslo LG L';-inkscape-font-specification:'Meslo LG L';fill:#ffffff;fill-opacity:1;stroke-width:0.26458332"
         id="tspan4559"> ##&quot;&quot;&quot;##</tspan><tspan
         sodipodi:role="line"
         x="19.977764"
         y="118.73769"
         style="font-style:normal;font-variant:normal;font-weight:normal;font-stretch:normal;font-size:18.34444427px;line-height:1.20000005;font-family:'Meslo LG L';-inkscape-font-specification:'Meslo LG L';fill:#ffffff;fill-opacity:1;stroke-width:0.26458332"
         id="tspan4495">  &quot;###&quot;</tspan></text>
  </g>
  <g
     inkscape:groupmode="layer"
     id="layer2"
     inkscape:label="fg"
     style="display:inline">
    <path
       inkscape:connector-curvature="0"
       d="m 92.880809,104.88083 v 5.48184 h -2.006424 v -5.48184 z m -4.774214,0 v 5.48184 h -2.006423 v -5.48184 z m -8.598952,0.7345 -0.806153,3.17086 h 2.194526 l 0.81511,-3.17086 h 1.43316 l -0.81511,3.17086 h 2.185569 v 1.37046 h -2.516987 l -0.877811,3.5202 h 2.239313 v 1.37046 h -2.588645 l -0.931554,3.69039 h -1.43316 l 0.940511,-3.69039 h -2.203483 l -0.940511,3.69039 h -1.424202 l 0.931554,-3.69039 H 73.3988 v -1.37046 h 2.660302 l 0.877811,-3.5202 h -2.382628 v -1.37046 h 2.714046 l 0.806152,-3.17086 z m 1.056955,4.54132 h -2.194526 l -0.87781,3.5202 h 2.203483 z m -12.092287,-4.54132 -0.806152,3.17086 h 2.194526 l 0.815109,-3.17086 h 1.43316 l -0.81511,3.17086 h 2.185569 v 1.37046 h -2.516987 l -0.87781,3.5202 h 2.239312 v 1.37046 h -2.588645 l -0.931554,3.69039 H 67.37057 l 0.940511,-3.69039 H 66.1076 l -0.94051,3.69039 h -1.42421 l 0.93156,-3.69039 h -2.31097 v -1.37046 h 2.6603 l 0.87781,-3.5202 h -2.38263 v -1.37046 H 66.233 l 0.806151,-3.17086 z m 1.056955,4.54132 h -2.194525 l -0.877811,3.5202 h 2.203483 z m -12.092286,-4.54132 -0.80615,3.17086 h 2.19452 l 0.81511,-3.17086 h 1.43316 l -0.81511,3.17086 h 2.18557 v 1.37046 h -2.51699 l -0.87781,3.5202 h 2.23932 v 1.37046 h -2.58865 l -0.93155,3.69039 h -1.43316 l 0.94051,-3.69039 h -2.20348 l -0.94052,3.69039 h -1.4242 l 0.93156,-3.69039 h -2.31097 v -1.37046 h 2.6603 l 0.87781,-3.5202 h -2.38263 v -1.37046 h 2.71405 l 0.80615,-3.17086 z m 1.05695,4.54132 h -2.19452 l -0.87781,3.5202 h 2.20348 z m -9.75444,-5.27582 v 5.48184 h -2.00642 v -5.48184 z m -4.77421,0 v 5.48184 h -2.00642 v -5.48184 z m 57.61302,-21.278836 -0.80615,3.170866 h 2.19452 l 0.81511,-3.170866 h 1.43316 l -0.81511,3.170866 h 2.18557 v 1.370459 h -2.51699 l -0.87781,3.520199 h 2.23932 v 1.370459 h -2.58865 l -0.93155,3.690386 h -1.43316 l 0.94051,-3.690386 h -2.203485 l -0.940511,3.690386 h -1.424202 l 0.931553,-3.690386 h -2.31097 v -1.370459 h 2.660303 l 0.87781,-3.520199 H 96.62494 V 86.77286 h 2.714047 l 0.806153,-3.170866 z m 1.05695,4.541325 h -2.19452 l -0.877812,3.520199 H 101.7664 Z M 90.542967,83.601994 89.736815,86.77286 h 2.194525 l 0.81511,-3.170866 h 1.43316 L 93.3645,86.77286 h 2.185569 v 1.370459 h -2.516987 l -0.87781,3.520199 h 2.239312 v 1.370459 h -2.588645 l -0.931554,3.690386 h -1.43316 l 0.940511,-3.690386 h -2.203483 l -0.940511,3.690386 H 85.81354 l 0.931554,-3.690386 h -2.31097 v -1.370459 h 2.660302 l 0.877811,-3.520199 H 85.589609 V 86.77286 h 2.714046 l 0.806152,-3.170866 z m 1.056955,4.541325 h -2.194526 l -0.87781,3.520199 h 2.203483 z M 81.845485,82.8675 v 5.481836 H 79.839061 V 82.8675 Z m -4.774214,0 v 5.481836 H 75.064848 V 82.8675 Z m -6.261118,0 v 5.481836 H 68.803729 V 82.8675 Z m -4.774213,0 v 5.481836 H 64.02952 V 82.8675 Z m -6.26112,0 v 5.481836 H 57.7684 V 82.8675 Z m -4.77421,0 v 5.481836 H 52.99418 V 82.8675 Z m -8.59896,0.734494 -0.80615,3.170866 h 2.19452 l 0.81511,-3.170866 h 1.43316 l -0.81511,3.170866 h 2.18557 v 1.370459 h -2.51698 l -0.87781,3.520199 h 2.23931 v 1.370459 h -2.58865 l -0.93155,3.690386 h -1.43316 l 0.94051,-3.690386 h -2.20348 l -0.94051,3.690386 h -1.42421 l 0.93156,-3.690386 h -2.31097 v -1.370459 h 2.6603 l 0.87781,-3.520199 H 41.44829 V 86.77286 h 2.71405 l 0.80615,-3.170866 z m 1.05696,4.541325 h -2.19453 l -0.87781,3.520199 h 2.20348 z M 35.36632,83.601994 34.56017,86.77286 h 2.19453 l 0.8151,-3.170866 h 1.43316 l -0.81511,3.170866 h 2.18557 v 1.370459 h -2.51698 l -0.87781,3.520199 h 2.23931 v 1.370459 h -2.58865 l -0.93155,3.690386 h -1.43316 l 0.94051,-3.690386 h -2.20348 l -0.94051,3.690386 h -1.42421 l 0.93156,-3.690386 h -2.31097 v -1.370459 h 2.6603 l 0.87781,-3.520199 H 30.41296 V 86.77286 h 2.71405 l 0.80615,-3.170866 z m 1.05696,4.541325 h -2.19453 l -0.87781,3.520199 h 2.20348 z M 109.604,59.89574 h 1.43316 q 1.35254,2.113911 2.01538,4.138249 0.66283,2.024338 0.66283,4.021805 0,2.01538 -0.66283,4.039718 -0.66284,2.024339 -2.01538,4.138249 H 109.604 q 1.19131,-2.078081 1.77353,-4.111377 0.59118,-2.033295 0.59118,-4.06659 0,-2.042253 -0.59118,-4.075548 -0.58222,-2.033296 -1.77353,-4.084506 z m -8.0257,1.69292 -0.80615,3.170866 h 2.19452 l 0.81511,-3.170866 h 1.43316 l -0.81511,3.170866 h 2.18557 v 1.370459 h -2.51699 l -0.87781,3.520199 h 2.23932 v 1.370459 h -2.58865 l -0.93155,3.690386 h -1.43316 l 0.94051,-3.690386 h -2.203485 l -0.940511,3.690386 h -1.424202 l 0.931553,-3.690386 h -2.31097 v -1.370459 h 2.660303 l 0.87781,-3.520199 H 96.62494 v -1.370459 h 2.714047 l 0.806153,-3.170866 z m 1.05695,4.541325 h -2.19452 l -0.877812,3.520199 h 2.203482 z m -17.305402,2.095996 h 9.494684 v 1.513775 h -9.494684 z m -3.842653,-0.188102 q 0,-2.946935 -0.609093,-4.209907 Q 80.277966,62.565 78.89855,62.565 q -1.370459,0 -1.979552,1.262972 -0.600136,1.262972 -0.600136,4.209907 0,2.937977 0.600136,4.200949 0.609093,1.262972 1.979552,1.262972 1.379416,0 1.979552,-1.254014 0.609093,-1.262972 0.609093,-4.209907 z m 1.889979,0 q 0,3.493327 -1.110699,5.213118 -1.101741,1.719792 -3.367925,1.719792 -2.266184,0 -3.367925,-1.710834 -1.101742,-1.710835 -1.101742,-5.222076 0,-3.502284 1.101742,-5.222076 1.110698,-1.719791 3.367925,-1.719791 2.266184,0 3.367925,1.719791 1.110699,1.719792 1.110699,5.222076 z m -10.067949,8.375027 v 1.522732 H 62.34555 V 76.412906 Z M 59.41653,68.037879 q 0,-2.946935 -0.60909,-4.209907 Q 58.2073,62.565 56.82789,62.565 q -1.37046,0 -1.97956,1.262972 -0.60013,1.262972 -0.60013,4.209907 0,2.937977 0.60013,4.200949 0.6091,1.262972 1.97956,1.262972 1.37941,0 1.97955,-1.254014 0.60909,-1.262972 0.60909,-4.209907 z m 1.88998,0 q 0,3.493327 -1.1107,5.213118 -1.10174,1.719792 -3.36792,1.719792 -2.26619,0 -3.36793,-1.710834 -1.10174,-1.710835 -1.10174,-5.222076 0,-3.502284 1.10174,-5.222076 1.1107,-1.719791 3.36793,-1.719791 2.26618,0 3.36792,1.719791 1.1107,1.719792 1.1107,5.222076 z m -20.11798,0.188102 h 9.49469 v 1.513775 h -9.49469 z m -5.82221,-6.637321 -0.80615,3.170866 h 2.19453 l 0.8151,-3.170866 h 1.43316 l -0.81511,3.170866 h 2.18557 v 1.370459 h -2.51698 l -0.87781,3.520199 h 2.23931 v 1.370459 h -2.58865 l -0.93155,3.690386 h -1.43316 l 0.94051,-3.690386 h -2.20348 l -0.94051,3.690386 h -1.42421 l 0.93156,-3.690386 h -2.31097 v -1.370459 h 2.6603 l 0.87781,-3.520199 h -2.38263 v -1.370459 h 2.71405 l 0.80615,-3.170866 z m 1.05696,4.541325 h -2.19453 l -0.87781,3.520199 h 2.20348 z M 25.86268,59.89574 q -1.19131,2.042253 -1.78249,4.075548 -0.58222,2.024338 -0.58222,4.084506 0,2.051209 0.58222,4.084505 0.59118,2.033295 1.78249,4.093462 h -1.43316 q -1.35254,-2.131825 -2.01538,-4.147206 -0.66284,-2.024338 -0.66284,-4.030761 0,-1.997467 0.66284,-4.021805 0.66284,-2.024338 2.01538,-4.138249 z M 99.2942,42.674534 h 2.79466 v 3.233567 H 99.2942 Z m 0,6.762723 h 2.79466 v 3.260438 H 99.2942 Z m -14.949643,4.962315 v 1.522732 H 73.380885 v -1.522732 z m -23.297807,-8.72436 1.16444,0.788238 q -0.77032,1.755621 -1.51377,2.400543 -0.74345,0.635964 -1.53169,0.635964 -1.25402,-0.07166 -2.26619,-1.298801 -1.00321,-1.2361 -1.41524,-1.746663 -0.41203,-0.51952 -1.06591,-0.510563 -0.68971,0 -1.048,0.653879 -0.35829,0.644922 -0.75241,1.648134 l -1.19131,-0.680751 q 0.51952,-1.657091 1.34358,-2.445329 0.82407,-0.788238 1.65709,-0.788238 1.51378,-0.01791 2.70509,1.79145 1.20027,1.809364 2.0333,1.809364 0.70762,0 1.15548,-0.770323 0.44787,-0.779281 0.72554,-1.486904 z M 33.08222,42.674534 h 2.79466 v 3.233567 h -2.79466 z m 0,6.762723 h 2.79466 v 3.260438 H 33.08222 Z M 87.900579,27.065633 h 3.152951 v 3.618728 H 87.900579 Z M 80.027163,16.728968 v 5.580366 H 78.02074 v -5.580366 z m -9.21701,0.09853 v 5.481836 h -2.006424 v -5.481836 z m -4.774213,0 v 5.481836 h -2.00642 v -5.481836 z m -8.07944,-0.09853 v 5.580366 H 55.95008 V 16.728968 Z M 43.75926,27.065633 h 3.15295 v 3.618728 h -3.15295 z"
       style="font-style:normal;font-variant:normal;font-weight:normal;font-stretch:normal;font-size:18.34444427px;line-height:1.20000005;font-family:'Meslo LG L';-inkscape-font-specification:'Meslo LG L';letter-spacing:0px;word-spacing:0px;fill:#ffffff;fill-opacity:1;stroke:none;stroke-width:0.26458332"
       id="path4665" />
  </g>
</svg>
