<?xml version="1.0" encoding="UTF-8" standalone="no"?>
<!-- Created with Inkscape (http://www.inkscape.org/) -->

<svg
   xmlns:dc="http://purl.org/dc/elements/1.1/"
   xmlns:cc="http://creativecommons.org/ns#"
   xmlns:rdf="http://www.w3.org/1999/02/22-rdf-syntax-ns#"
   xmlns:svg="http://www.w3.org/2000/svg"
   xmlns="http://www.w3.org/2000/svg"
   xmlns:sodipodi="http://sodipodi.sourceforge.net/DTD/sodipodi-0.dtd"
   xmlns:inkscape="http://www.inkscape.org/namespaces/inkscape"
   width="512"
   height="512"
   viewBox="0 0 135.46666 135.46667"
   version="1.1"
   id="svg8"
   inkscape:version="0.92.1 r"
   sodipodi:docname="ascii.svg"
   inkscape:export-filename="/home/petervaro/documents/personal/remote/petervaro/avatar/ascii.png"
   inkscape:export-xdpi="72"
   inkscape:export-ydpi="72">
  <defs
     id="defs2" />
  <sodipodi:namedview
     id="base"
     pagecolor="#ffffff"
     bordercolor="#666666"
     borderopacity="1.0"
     inkscape:pageopacity="0.0"
     inkscape:pageshadow="2"
     inkscape:zoom="0.98994949"
     inkscape:cx="255.53099"
     inkscape:cy="193.79667"
     inkscape:document-units="px"
     inkscape:current-layer="layer2"
     showgrid="false"
     units="px"
     inkscape:showpageshadow="false"
     inkscape:window-width="1274"
     inkscape:window-height="1434"
     inkscape:window-x="0"
     inkscape:window-y="0"
     inkscape:window-maximized="0" />
  <metadata
     id="metadata5">
    <rdf:RDF>
      <cc:Work
         rdf:about="">
        <dc:format>image/svg+xml</dc:format>
        <dc:type
           rdf:resource="http://purl.org/dc/dcmitype/StillImage" />
        <dc:title></dc:title>
      </cc:Work>
    </rdf:RDF>
  </metadata>
  <g
     inkscape:label="bg"
     inkscape:groupmode="layer"
     id="layer1"
     transform="translate(0,-161.53332)"
     sodipodi:insensitive="true">
    <rect
       style="opacity:1;fill:#282c34;fill-opacity:1;fill-rule:evenodd;stroke:none;stroke-width:0.52916664;stroke-linecap:round;stroke-linejoin:miter;stroke-miterlimit:4;stroke-dasharray:none;stroke-opacity:1"
       id="rect4590"
       width="135.46666"
       height="135.46667"
       x="0"
       y="161.53333" />
  </g>
  <g
     inkscape:groupmode="layer"
     id="layer3"
     inkscape:label="tx"
     style="display:none"
     sodipodi:insensitive="true">
    <text
       xml:space="preserve"
       style="font-style:normal;font-weight:normal;font-size:10.58333302px;line-height:1.25;font-family:sans-serif;letter-spacing:0px;word-spacing:0px;fill:#000000;fill-opacity:1;stroke:none;stroke-width:0.26458332"
       x="19.977764"
       y="30.684361"
       id="text4487"><tspan
         sodipodi:role="line"
         id="tspan4485"
         x="19.977764"
         y="30.684361"
         style="font-style:normal;font-variant:normal;font-weight:normal;font-stretch:normal;font-size:18.34444427px;line-height:1.20000005;font-family:'Meslo LG L';-inkscape-font-specification:'Meslo LG L';fill:#ffffff;fill-opacity:1;stroke-width:0.26458332">  .'&quot;'.</tspan><tspan
         sodipodi:role="line"
         x="19.977764"
         y="52.697693"
         style="font-style:normal;font-variant:normal;font-weight:normal;font-stretch:normal;font-size:18.34444427px;line-height:1.20000005;font-family:'Meslo LG L';-inkscape-font-specification:'Meslo LG L';fill:#ffffff;fill-opacity:1;stroke-width:0.26458332"
         id="tspan4489"> : ~ _ :</tspan><tspan
         sodipodi:role="line"
         x="19.977764"
         y="74.711029"
         style="font-style:normal;font-variant:normal;font-weight:normal;font-stretch:normal;font-size:18.34444427px;line-height:1.20000005;font-family:'Meslo LG L';-inkscape-font-specification:'Meslo LG L';fill:#ffffff;fill-opacity:1;stroke-width:0.26458332"
         id="tspan4491">(# '_' #)</tspan><tspan
         sodipodi:role="line"
         x="19.977764"
         y="96.724365"
         style="font-style:normal;font-variant:normal;font-weight:normal;font-stretch:normal;font-size:18.34444427px;line-height:1.20000005;font-family:'Meslo LG L';-inkscape-font-specification:'Meslo LG L';fill:#ffffff;fill-opacity:1;stroke-width:0.26458332"
         id="tspan4493"> ##&quot;&quot;&quot;##</tspan><tspan
         sodipodi:role="line"
         x="19.977764"
         y="118.73769"
         style="font-style:normal;font-variant:normal;font-weight:normal;font-stretch:normal;font-size:18.34444427px;line-height:1.20000005;font-family:'Meslo LG L';-inkscape-font-specification:'Meslo LG L';fill:#ffffff;fill-opacity:1;stroke-width:0.26458332"
         id="tspan4495">  &quot;###&quot;</tspan></text>
  </g>
  <g
     inkscape:groupmode="layer"
     id="layer2"
     inkscape:label="fg">
    <path
       id="path4604"
       style="font-style:normal;font-variant:normal;font-weight:normal;font-stretch:normal;font-size:18.34444427px;line-height:1.20000005;font-family:'Meslo LG L';-inkscape-font-specification:'Meslo LG L';letter-spacing:0px;word-spacing:0px;fill:#ffffff;fill-opacity:1;stroke:none;stroke-width:0.26458332"
       d="m 92.880804,104.88083 v 5.48184 H 90.87438 v -5.48184 z m -4.774214,0 v 5.48184 h -2.006423 v -5.48184 z m -8.598952,0.7345 -0.806152,3.17086 h 2.194525 l 0.81511,-3.17086 h 1.43316 l -0.81511,3.17086 h 2.185569 v 1.37046 h -2.516987 l -0.87781,3.5202 h 2.239312 v 1.37046 H 80.77061 l -0.931554,3.69039 h -1.43316 l 0.940511,-3.69039 h -2.203483 l -0.940511,3.69039 h -1.424202 l 0.931554,-3.69039 h -2.31097 v -1.37046 h 2.660302 l 0.877811,-3.5202 H 74.55428 v -1.37046 h 2.714046 l 0.806152,-3.17086 z m 1.056955,4.54132 h -2.194526 l -0.87781,3.5202 h 2.203483 z m -12.092287,-4.54132 -0.806152,3.17086 h 2.194526 l 0.815109,-3.17086 h 1.43316 l -0.81511,3.17086 h 2.185569 v 1.37046 h -2.516987 l -0.87781,3.5202 h 2.239312 v 1.37046 h -2.588645 l -0.931554,3.69039 h -1.433159 l 0.940511,-3.69039 h -2.203483 l -0.940511,3.69039 h -1.424203 l 0.931554,-3.69039 h -2.31097 v -1.37046 h 2.660303 l 0.87781,-3.5202 h -2.382628 v -1.37046 h 2.714046 l 0.806152,-3.17086 z m 1.056955,4.54132 h -2.194525 l -0.877811,3.5202 h 2.203483 z m -12.092287,-4.54132 -0.806152,3.17086 h 2.194526 l 0.815109,-3.17086 h 1.43316 l -0.815109,3.17086 h 2.185568 v 1.37046 h -2.516987 l -0.87781,3.5202 h 2.239312 v 1.37046 h -2.588645 l -0.931553,3.69039 h -1.43316 l 0.940511,-3.69039 h -2.203483 l -0.940511,3.69039 h -1.424203 l 0.931554,-3.69039 h -2.31097 v -1.37046 h 2.660303 l 0.87781,-3.5202 h -2.382628 v -1.37046 h 2.714046 l 0.806153,-3.17086 z m 1.056956,4.54132 h -2.194526 l -0.87781,3.5202 h 2.203483 z m -9.754442,-5.27582 v 5.48184 h -2.006423 v -5.48184 z m -4.774213,0 v 5.48184 h -2.006424 v -5.48184 z m 57.613025,-21.278838 -0.80615,3.170866 h 2.19452 l 0.81511,-3.170866 h 1.43316 l -0.81511,3.170866 h 2.18557 v 1.370459 h -2.51699 l -0.87781,3.520198 h 2.23932 v 1.370459 h -2.58865 l -0.93155,3.690387 h -1.43316 l 0.94051,-3.690387 h -2.203485 l -0.94052,3.690387 h -1.424198 l 0.931553,-3.690387 h -2.31097 v -1.370459 h 2.660303 l 0.877812,-3.520198 h -2.38263 v -1.370459 h 2.71405 l 0.806155,-3.170866 z m 1.05695,4.541325 h -2.19452 l -0.877815,3.520198 H 101.7664 Z M 90.542962,83.601992 89.73681,86.772858 h 2.194525 l 0.81511,-3.170866 h 1.43316 l -0.81511,3.170866 h 2.185569 v 1.370459 h -2.516987 l -0.87781,3.520198 h 2.239312 v 1.370459 h -2.588645 l -0.931554,3.690387 h -1.43316 l 0.940512,-3.690387 h -2.203484 l -0.940511,3.690387 h -1.424202 l 0.931554,-3.690387 h -2.31097 v -1.370459 h 2.660302 l 0.877811,-3.520198 h -2.382628 v -1.370459 h 2.714046 l 0.806152,-3.170866 z m 1.056955,4.541325 h -2.194526 l -0.87781,3.520198 h 2.203483 z M 81.84548,82.867498 v 5.481835 h -2.006424 v -5.481835 z m -4.774214,0 v 5.481835 h -2.006423 v -5.481835 z m -6.261118,0 v 5.481835 h -2.006424 v -5.481835 z m -4.774213,0 v 5.481835 h -2.006424 v -5.481835 z m -6.261119,0 v 5.481835 h -2.006423 v -5.481835 z m -4.774213,0 v 5.481835 h -2.006424 v -5.481835 z m -8.598956,0.734494 -0.806153,3.170866 h 2.194526 l 0.81511,-3.170866 h 1.433159 l -0.815109,3.170866 h 2.185568 v 1.370459 h -2.516986 l -0.877811,3.520198 h 2.239312 v 1.370459 h -2.588644 l -0.931554,3.690387 h -1.43316 l 0.940511,-3.690387 h -2.203483 l -0.940511,3.690387 h -1.424203 l 0.931554,-3.690387 h -2.31097 v -1.370459 h 2.660303 l 0.87781,-3.520198 h -2.382628 v -1.370459 h 2.714046 l 0.806153,-3.170866 z m 1.056955,4.541325 h -2.194526 l -0.87781,3.520198 h 2.203483 z m -12.092285,-4.541325 -0.806153,3.170866 h 2.194526 l 0.81511,-3.170866 h 1.433159 l -0.815109,3.170866 h 2.185568 v 1.370459 h -2.516986 l -0.877811,3.520198 h 2.239312 v 1.370459 h -2.588644 l -0.931554,3.690387 h -1.43316 l 0.940511,-3.690387 h -2.203483 l -0.940511,3.690387 H 30.63689 l 0.931553,-3.690387 h -2.31097 v -1.370459 h 2.660303 l 0.87781,-3.520198 h -2.382628 v -1.370459 h 2.714047 l 0.806152,-3.170866 z m 1.056955,4.541325 h -2.194526 l -0.87781,3.520198 h 2.203483 z M 109.604,59.895738 h 1.43315 q 1.35255,2.113911 2.01539,4.138249 0.66283,2.024338 0.66283,4.021804 0,2.015381 -0.66283,4.039719 -0.66284,2.024338 -2.01539,4.138249 H 109.604 q 1.19131,-2.078082 1.77353,-4.111377 0.59118,-2.033296 0.59118,-4.066591 0,-2.042252 -0.59118,-4.075548 -0.58222,-2.033295 -1.77353,-4.084505 z m -8.0257,1.69292 -0.80615,3.170866 h 2.19452 l 0.81511,-3.170866 h 1.43316 l -0.81511,3.170866 h 2.18557 v 1.370459 h -2.51699 l -0.87781,3.520198 h 2.23932 v 1.370459 h -2.58865 l -0.93155,3.690387 h -1.43316 l 0.94051,-3.690387 h -2.203485 l -0.94052,3.690387 H 96.848867 L 97.78042,71.02064 h -2.31097 v -1.370459 h 2.660303 l 0.877812,-3.520198 h -2.38263 v -1.370459 h 2.71405 l 0.806155,-3.170866 z m 1.05695,4.541325 h -2.19452 l -0.877815,3.520198 H 101.7664 Z M 80.027158,60.755634 v 5.580365 h -2.006423 v -5.580365 z m -6.717938,15.65727 v 1.522732 H 62.345548 V 76.412904 Z M 57.956495,60.755634 v 5.580365 h -2.006424 v -5.580365 z m -22.590178,0.833024 -0.806153,3.170866 h 2.194526 l 0.81511,-3.170866 h 1.433159 l -0.815109,3.170866 h 2.185568 v 1.370459 h -2.516986 l -0.877811,3.520198 h 2.239312 v 1.370459 h -2.588644 l -0.931554,3.690387 h -1.43316 l 0.940511,-3.690387 h -2.203483 l -0.940511,3.690387 H 30.63689 l 0.931553,-3.690387 h -2.31097 v -1.370459 h 2.660303 l 0.87781,-3.520198 h -2.382628 v -1.370459 h 2.714047 l 0.806152,-3.170866 z m 1.056955,4.541325 h -2.194526 l -0.87781,3.520198 h 2.203483 z M 25.862676,59.895738 q -1.191314,2.042253 -1.782492,4.075548 -0.582221,2.024338 -0.582221,4.084505 0,2.05121 0.582221,4.084505 0.591178,2.033296 1.782492,4.093463 h -1.433159 q -1.352545,-2.131825 -2.015381,-4.147206 -0.662837,-2.024338 -0.662837,-4.030762 0,-1.997466 0.662837,-4.021804 0.662836,-2.024338 2.015381,-4.138249 z M 99.294195,42.674532 h 2.794665 v 3.233566 h -2.794665 z m 0,6.762722 h 2.794665 v 3.260439 H 99.294195 Z M 84.344552,54.39957 v 1.522732 H 73.38088 V 54.39957 Z m -23.297807,-8.72436 1.164443,0.788238 q -0.770324,1.75562 -1.513775,2.400542 -0.743452,0.635965 -1.53169,0.635965 -1.254014,-0.07166 -2.266183,-1.298801 -1.003212,-1.2361 -1.415246,-1.746663 -0.412033,-0.519521 -1.065912,-0.510564 -0.689708,0 -1.047998,0.653879 -0.35829,0.644922 -0.752409,1.648134 l -1.191314,-0.680751 q 0.51952,-1.657091 1.343587,-2.445328 0.824067,-0.788238 1.657091,-0.788238 1.513775,-0.01792 2.705089,1.791449 1.200271,1.809364 2.033295,1.809364 0.707623,0 1.155485,-0.770323 0.447863,-0.77928 0.725537,-1.486903 z M 33.082218,42.674532 h 2.794662 v 3.233566 h -2.794662 z m 0,6.762722 h 2.794662 v 3.260439 H 33.082218 Z M 87.900574,27.06563 h 3.152951 v 3.618729 H 87.900574 Z M 80.027158,16.728966 v 5.580365 h -2.006423 v -5.580365 z m -9.21701,0.09853 v 5.481835 h -2.006424 v -5.481835 z m -4.774213,0 v 5.481835 h -2.006424 v -5.481835 z m -8.07944,-0.09853 v 5.580365 H 55.950071 V 16.728966 Z M 43.759258,27.06563 h 3.152952 v 3.618729 h -3.152952 z"
       inkscape:connector-curvature="0" />
  </g>
</svg>
